Coordinates
version=1
nRows=16
nColumns=40
inDegrees=yes

Units are S.I. units (second, meters, Newtons, ...)
Angles are in degrees.

endheader
time	pelvis_tilt	pelvis_list	pelvis_rotation	pelvis_tx	pelvis_ty	pelvis_tz	hip_flexion_r	hip_adduction_r	hip_rotation_r	knee_angle_r	knee_angle_r_beta	ankle_angle_r	subtalar_angle_r	mtp_angle_r	hip_flexion_l	hip_adduction_l	hip_rotation_l	knee_angle_l	knee_angle_l_beta	ankle_angle_l	subtalar_angle_l	mtp_angle_l	lumbar_extension	lumbar_bending	lumbar_rotation	arm_flex_r	arm_add_r	arm_rot_r	elbow_flex_r	pro_sup_r	wrist_flex_r	wrist_dev_r	arm_flex_l	arm_add_l	arm_rot_l	elbow_flex_l	pro_sup_l	wrist_flex_l	wrist_dev_l
     48.62000000	     -6.33086262	     -5.83658510	      4.97777052	      1.06083376	      0.92830172	      0.48912307	     16.12593520	      4.58737141	    -17.91117926	     13.58715427	     13.58715427	      6.45154773	      2.12480161	     -4.31387792	     36.67808132	    -11.14702121	      5.68997048	     63.46125433	     63.46125433	      6.81116005	    -17.39623549	      9.76009781	    -12.83612379	      5.13082744	      4.45312155	     19.95383184	    -18.02022896	      6.41398187	     50.15298035	     45.64810507	      0.00000000	      0.00000000	      3.44860598	     -9.34482101	     -3.07612277	     54.24277189	     46.21130662	      0.00000000	      0.00000000
     48.63178571	     -6.42517418	     -5.89339453	      5.13543042	      1.05865025	      0.92863936	      0.49001693	     15.51925137	      4.79760002	    -18.06350162	     13.08077609	     13.08077609	      6.66956765	      2.40775054	     -4.37004860	     37.85224866	    -11.29926620	      5.18743262	     60.97181219	     60.97181219	      6.98695597	    -17.79971776	     10.05539913	    -12.84918353	      5.10989807	      3.84459886	     22.60194338	    -17.59590392	      6.34398862	     52.27746878	     45.58646066	      0.00000000	      0.00000000	      2.09760548	     -9.31886959	     -2.82022774	     51.91728117	     46.16148117	      0.00000000	      0.00000000
     48.64357143	     -6.48306252	     -5.97064242	      5.27157387	      1.05655653	      0.92900038	      0.49080456	     14.82489892	      5.04174223	    -18.29792303	     12.46236361	     12.46236361	      6.79117540	      2.83607634	     -4.36754821	     38.73002935	    -11.44899524	      4.60233049	     58.14092513	     58.14092513	      7.22200153	    -18.07373697	     10.37782212	    -12.91572212	      5.16252403	      3.39029573	     25.09822870	    -17.34669856	      6.52859047	     54.78456170	     45.50000038	      0.00000000	      0.00000000	      1.15401219	     -9.10325516	     -2.64604380	     48.77677798	     46.11852777	      0.00000000	      0.00000000
     48.65535714	     -6.58806536	     -6.04363433	      5.36124229	      1.05448541	      0.92921014	      0.49149958	     14.22877742	      5.23842071	    -18.63077993	     11.95527662	     11.95527662	      6.98855471	      3.51389206	     -4.41394654	     39.46406290	    -11.54322324	      4.02152354	     55.07648488	     55.07648488	      7.42361155	    -18.12558812	     10.79359513	    -12.87848244	      5.25359863	      4.23203351	     26.47585081	    -18.57553305	      7.47920061	     58.75559394	     45.32606490	      0.00000000	      0.00000000	      2.12349432	     -8.12784368	     -2.81667479	     42.46938557	     46.13394282	      0.00000000	      0.00000000
     48.66714286	     -6.64900624	     -6.08656726	      5.46388081	      1.05253484	      0.92943774	      0.49215058	     13.57160218	      5.45059692	    -18.71481397	     11.40475823	     11.40475823	      7.16402955	      3.79746403	     -4.36544760	     39.92090421	    -11.51559540	      3.53494402	     51.73742720	     51.73742720	      7.57797408	    -18.00645766	     11.25664752	    -12.94660736	      5.24719853	      3.87676433	     28.92565420	    -18.11514314	      7.18373205	     60.92609317	     45.27487785	      0.00000000	      0.00000000	      0.88733238	     -8.02851649	     -2.65157412	     40.66523903	     46.09618028	      0.00000000	      0.00000000
     48.67892857	     -6.73625756	     -6.20462548	      5.56212730	      1.05059689	      0.92951051	      0.49264122	     12.92567301	      5.71722305	    -18.98964410	     10.80550965	     10.80550965	      7.33196798	      4.38308661	     -4.35547886	     40.28178094	    -11.45309782	      3.23700609	     48.25884280	     48.25884280	      7.67975710	    -17.67464755	     11.55914127	    -12.97840698	      5.37515894	      3.67490480	     31.16892658	    -17.85460387	      7.10611615	     63.50222609	     45.20154921	      0.00000000	      0.00000000	      0.06066110	     -7.77904359	     -2.51730946	     38.03766723	     46.06429859	      0.00000000	      0.00000000
     48.69071429	     -6.82818688	     -6.27238124	      5.60884351	      1.04877475	      0.92953998	      0.49302739	     12.31413236	      5.91973963	    -19.17843660	     10.28499212	     10.28499212	      7.51753185	      4.93408591	     -4.37107283	     40.43338945	    -11.32224666	      2.94167711	     44.57498541	     44.57498541	      7.82222710	    -17.03723568	     11.72363566	    -12.99169327	      5.42867704	      3.67279463	     33.23743129	    -17.68775233	      7.03608129	     65.92963574	     45.13311531	      0.00000000	      0.00000000	     -0.73441715	     -7.55125887	     -2.42489781	     35.83153200	     46.03805587	      0.00000000	      0.00000000
     48.70250000	     -6.94779502	     -6.32490383	      5.62254551	      1.04707152	      0.92941205	      0.49329796	     11.72776402	      6.10126581	    -19.29696929	      9.78456885	      9.78456885	      7.74586055	      5.46387312	     -4.41857469	     40.50364385	    -11.17791548	      2.64857758	     40.84799225	     40.84799225	      7.95675773	    -15.92318443	     11.83319470	    -12.90451073	      5.45831821	      3.75557912	     35.27138228	    -17.46366338	      6.94090013	     68.20555887	     45.07096546	      0.00000000	      0.00000000	     -1.65378730	     -7.39163132	     -2.34940570	     34.15014486	     46.01309942	      0.00000000	      0.00000000
     48.71428571	     -7.04107507	     -6.54848865	      5.66900127	      1.04551696	      0.92913163	      0.49336363	     11.08643250	      6.42842449	    -19.80871432	      9.23266423	      9.23266423	      7.99940841	      6.54039704	     -4.41639216	     40.45998670	    -11.15936129	      2.50495987	     37.02245281	     37.02245281	      7.62605563	    -14.57945139	     10.46945176	    -12.87896128	      5.74099123	      4.71307470	     36.12135606	    -18.50816895	      6.77578158	     73.14029097	     44.93476921	      0.00000000	      0.00000000	     -1.31189753	     -6.84445467	     -2.38440910	     30.43190535	     46.02414918	      0.00000000	      0.00000000
     48.72607143	     -7.13228459	     -6.69394903	      5.67063195	      1.04406498	      0.92882426	      0.49341476	     10.44443025	      6.72157626	    -19.84677815	      8.69147650	      8.69147650	      8.21134222	      6.95634997	     -4.45035372	     40.32620964	    -11.09360088	      2.29424723	     33.31652270	     33.31652270	      7.87976032	    -12.75049548	     10.67033908	    -12.79528208	      5.88687633	      4.55317986	     38.18388341	    -17.83538974	      6.49462647	     75.24616446	     44.88869119	      0.00000000	      0.00000000	     -2.60006433	     -6.80057021	     -2.30973625	     29.64896758	     45.99090131	      0.00000000	      0.00000000
     48.73785714	     -7.21908478	     -6.83006300	      5.65302249	      1.04280561	      0.92841942	      0.49333187	      9.76837206	      6.99872760	    -19.91411226	      8.13000343	      8.13000343	      8.45480315	      7.47710377	     -4.51792698	     40.09904116	    -11.04137894	      1.98977878	     29.72174214	     29.72174214	      8.07612050	    -10.76149955	     10.97134835	    -12.67705778	      6.03579650	      4.51531523	     40.08983074	    -17.28798417	      6.36082160	     77.47037602	     44.83251400	      0.00000000	      0.00000000	     -3.84320992	     -6.76257504	     -2.22831859	     29.04704868	     45.95696861	      0.00000000	      0.00000000
     48.74964286	     -7.24414722	     -7.04282626	      5.61909152	      1.04176702	      0.92794354	      0.49315421	      8.98637042	      7.36895398	    -20.02420123	      7.51838677	      7.51838677	      8.69553859	      8.11358508	     -4.58525239	     39.80944666	    -11.09060807	      1.63737347	     26.42059954	     26.42059954	      8.22803785	     -8.70737536	     11.35146860	    -12.60470601	      6.27327119	      4.45678568	     41.85176305	    -16.72656857	      6.30774151	     80.07129879	     44.76192710	      0.00000000	      0.00000000	     -5.13790956	     -6.72056242	     -2.11309532	     28.60732096	     45.91576782	      0.00000000	      0.00000000
     48.76142857	     -7.37145195	     -7.33570976	      5.61819058	      1.04068789	      0.92711531	      0.49273463	      8.41412353	      7.76926654	    -20.09333495	      7.07659071	      7.07659071	      8.96673228	      8.52866779	     -4.68603704	     39.68353308	    -11.13212891	      1.41048664	     23.49680912	     23.49680912	      8.21111695	     -6.99689221	     11.87739802	    -12.35408484	      6.66026165	      4.62277720	     43.69892547	    -16.37676111	      6.17968747	     82.07661981	     44.71194786	      0.00000000	      0.00000000	     -6.18888990	     -6.54845885	     -2.00645888	     28.36490665	     45.87993841	      0.00000000	      0.00000000
     48.77321429	     -7.23247708	     -7.55328298	      5.54895199	      1.04022098	      0.92659255	      0.49237914	      7.32200275	      8.17163760	    -20.25497038	      6.30847746	      6.30847746	      9.28414148	      9.58193980	     -4.58243701	     39.31895881	    -11.29555189	      0.67225042	     21.24830950	     21.24830950	      8.59283689	     -5.01443589	     12.94505081	    -12.52600111	      6.88709232	      5.16186900	     44.29735995	    -16.61485733	      5.91336308	     87.48092864	     44.59017338	      0.00000000	      0.00000000	     -7.70488588	     -6.82170159	     -0.84029900	     29.35908560	     45.66238636	      0.00000000	      0.00000000
     48.78500000	     -7.20318823	     -7.79765464	      5.49049527	      1.03972320	      0.92579269	      0.49183261	      6.44621607	      8.56856875	    -20.18557696	      5.71441675	      5.71441675	      9.60311360	     10.07814990	     -4.56775542	     39.07736955	    -11.38064028	      0.14111873	     19.41678294	     19.41678294	      8.47755443	     -3.88318104	     13.56221968	    -12.40422003	      7.17823638	      5.10365187	     45.84576166	    -15.90106487	      5.91005106	     89.85678473	     44.53681418	      0.00000000	      0.00000000	     -9.01445436	     -6.86525932	     -0.28162214	     29.34711383	     45.55491671	      0.00000000	      0.00000000
     48.79678571	     -7.13674931	     -7.95374057	      5.41087979	      1.03938707	      0.92498761	      0.49112370	      5.58998736	      8.83017091	    -20.03394766	      5.29528479	      5.29528479	     10.01503140	     10.47364536	     -4.57898872	     38.73947891	    -11.38626005	     -0.44706571	     18.04969252	     18.04969252	      8.23496627	     -3.22648618	     14.10095227	    -12.28862779	      7.38410020	      5.09497182	     47.24666584	    -15.27014149	      5.95083343	     92.10853973	     44.48006329	      0.00000000	      0.00000000	    -10.26185572	     -6.89134495	      0.10681015	     29.43173439	     45.47518204	      0.00000000	      0.00000000
